<?xml version="1.0" standalone="no"?>
<!DOCTYPE svg PUBLIC "-//W3C//DTD SVG 20010904//EN"
        "http://www.w3.org/TR/2001/REC-SVG-20010904/DTD/svg10.dtd">
<svg version="1.0" xmlns="http://www.w3.org/2000/svg"
     width="1408.000000pt" height="752.000000pt" viewBox="0 0 1408.000000 752.000000"
     preserveAspectRatio="xMidYMid meet">

    <g transform="translate(0.000000,752.000000) scale(0.100000,-0.100000)"
       fill="#000000" stroke="none">
        <path d="M2770 5349 c-262 -23 -533 -149 -702 -325 -142 -149 -254 -363 -304
-579 -14 -64 -26 -89 -57 -125 -21 -25 -47 -61 -57 -80 -10 -19 -31 -45 -47
-56 -36 -27 -86 -121 -103 -193 -18 -79 -9 -233 18 -295 l22 -48 -41 -103
c-37 -93 -43 -102 -64 -98 -58 12 -134 -56 -181 -163 -115 -261 -124 -666 -17
-818 16 -22 41 -67 57 -99 32 -66 66 -95 155 -131 81 -33 115 -33 146 -1 29
28 33 84 10 125 -8 14 -14 36 -15 48 l0 24 31 -26 c37 -31 77 -33 113 -5 21
17 26 28 26 67 0 26 -9 67 -20 91 -20 43 -20 45 -1 95 56 151 53 404 -6 538
l-26 58 19 65 c10 36 22 65 25 65 4 0 12 -28 19 -62 56 -288 246 -624 445
-788 l74 -62 -6 -101 c-5 -86 -10 -110 -34 -152 -15 -27 -37 -84 -48 -125 -23
-85 -51 -267 -51 -330 0 -35 -7 -50 -39 -87 -41 -46 -71 -116 -71 -165 0 -48
25 -84 72 -103 114 -47 525 -18 608 43 49 37 52 51 46 272 -6 209 -23 343 -49
384 -12 17 -14 42 -10 102 l6 79 186 -1 186 -1 3 -73 c2 -56 -2 -85 -17 -119
-31 -74 -45 -193 -45 -396 -1 -210 3 -229 63 -260 79 -40 404 -68 532 -46 81
15 114 38 129 89 14 50 -20 148 -72 207 -32 36 -38 51 -38 87 0 125 -53 360
-99 443 -24 42 -29 66 -34 152 l-6 102 62 50 c108 86 206 204 288 346 69 119
145 323 171 461 7 35 15 64 18 64 6 0 40 -114 40 -136 0 -10 -9 -36 -20 -59
-33 -68 -42 -148 -38 -315 4 -128 9 -166 28 -219 21 -61 22 -65 6 -98 -9 -19
-19 -55 -23 -79 -5 -39 -2 -46 25 -73 39 -40 72 -40 118 1 l37 32 -8 -34 c-4
-19 -14 -44 -21 -55 -55 -78 53 -186 131 -131 11 7 35 17 54 21 48 10 118 78
133 129 6 22 22 52 34 66 128 140 124 602 -6 861 -51 100 -106 149 -168 149
-27 0 -31 6 -69 98 l-41 99 25 74 c22 66 25 86 20 179 -6 137 -31 205 -101
274 -28 28 -59 67 -69 86 -11 19 -32 49 -48 66 -23 23 -35 54 -54 130 -37 154
-109 314 -193 434 -234 331 -619 498 -1062 459z m365 -74 c72 -15 128 -31 194
-57 l24 -9 -27 -28 c-16 -16 -27 -33 -26 -37 1 -5 -4 -10 -11 -13 -8 -2 -9 1
-3 10 7 12 5 12 -9 0 -9 -7 -14 -18 -10 -24 4 -6 0 -8 -10 -4 -10 4 -16 2 -14
-6 1 -7 -6 -11 -15 -11 -10 1 -16 -2 -13 -6 7 -11 -32 -23 -45 -15 -5 3 -10 2
-10 -3 0 -6 -9 -8 -20 -5 -11 3 -20 1 -20 -5 0 -6 -10 -8 -22 -4 -11 3 -19 1
-16 -4 4 -5 -34 -10 -85 -11 -51 -1 -128 -5 -172 -8 -44 -3 -72 -1 -61 3 14 6
0 12 -53 21 -40 7 -96 25 -125 40 -56 28 -145 91 -146 103 0 15 175 66 320 92
53 10 299 -3 375 -19z m-569 -196 c51 -26 81 -34 118 -33 30 0 42 -2 30 -7
-38 -13 136 -26 286 -21 41 2 51 5 40 12 -11 8 -8 9 12 4 64 -14 253 73 308
143 l19 25 66 -37 c81 -45 199 -139 261 -208 123 -136 230 -350 269 -535 11
-55 11 -69 0 -86 -24 -36 -46 -195 -52 -356 -2 -85 -7 -162 -10 -170 -4 -8 -5
-19 -4 -23 1 -5 -3 -6 -8 -3 -5 4 -46 -12 -92 -35 -45 -23 -110 -52 -143 -65
-52 -20 -57 -23 -31 -24 28 -1 29 -2 8 -10 -40 -16 -25 -19 23 -4 36 11 147
61 247 112 4 2 7 -25 7 -60 0 -56 7 -114 25 -225 6 -32 5 -33 -77 -74 -107
-54 -172 -99 -161 -110 6 -6 41 9 89 36 83 47 112 60 120 52 3 -3 -8 -29 -25
-59 -35 -62 -37 -68 -16 -68 8 0 15 -4 15 -9 0 -14 30 -7 41 10 16 24 -2 -51
-31 -131 -35 -98 -107 -242 -142 -284 -45 -55 -161 -128 -205 -130 -21 -1 -43
-5 -50 -9 -8 -5 -11 -1 -8 14 3 17 0 20 -15 16 -27 -7 -33 21 -27 120 3 63 11
94 40 155 42 91 109 182 173 234 28 24 41 41 35 47 -13 13 -80 -42 -142 -117
-61 -72 -109 -173 -139 -289 -24 -97 -23 -136 9 -197 l20 -38 -62 -26 c-208
-87 -521 -110 -777 -56 -135 29 -256 73 -251 91 36 122 36 120 11 225 -32 134
-86 239 -168 325 -51 55 -69 68 -86 64 -15 -5 -17 -4 -7 3 19 14 -58 69 -177
127 -88 44 -93 48 -88 73 13 61 26 171 26 223 0 31 2 58 5 61 3 3 40 -12 82
-33 77 -39 223 -92 231 -85 2 3 -16 10 -40 18 -40 12 -41 13 -16 18 21 4 6 13
-88 52 -63 25 -112 42 -108 37 3 -5 0 -9 -6 -9 -18 0 -50 20 -50 31 0 6 6 7
13 3 9 -6 9 -4 1 7 -6 8 -14 75 -18 149 -9 179 -32 335 -55 384 -20 39 -20 39
4 130 86 325 270 574 526 711 l61 32 42 -42 c24 -23 74 -57 112 -76z m784 108
c0 -2 -10 -12 -22 -23 l-23 -19 19 23 c18 21 26 27 26 19z m-1561 -924 c20
-77 31 -223 31 -405 0 -102 -3 -193 -6 -202 -5 -12 -10 -13 -25 -5 -17 9 -23
6 -21 -12 1 -4 -8 -5 -18 -2 -12 3 -21 0 -22 -8 -1 -8 -5 101 -9 241 -4 140
-10 275 -14 300 -6 40 -3 50 24 88 17 23 35 42 41 42 5 0 14 -17 19 -37z
m2280 -11 c30 -47 31 -51 20 -103 -9 -43 -19 -292 -19 -472 0 -18 -5 -25 -17
-25 -10 1 -30 -1 -44 -5 -36 -9 -39 3 -39 208 0 231 26 445 55 445 7 0 27 -22
44 -48z m-2396 -188 c10 -95 2 -399 -11 -433 l-9 -25 -27 27 c-49 49 -70 111
-74 223 -3 73 0 117 11 155 18 59 73 142 91 136 6 -2 15 -39 19 -83z m2500 56
c48 -56 70 -135 71 -245 0 -89 -3 -107 -28 -162 -26 -56 -70 -113 -80 -102 -2
2 -10 51 -16 109 -16 137 -2 430 20 430 5 0 20 -13 33 -30z m-463 -444 c0 -2
-7 -7 -16 -10 -8 -3 -12 -2 -9 4 6 10 25 14 25 6z m373 -72 c6 -38 0 -64 -14
-64 -5 0 -10 8 -10 18 -1 16 -2 16 -6 0 -2 -10 -9 -18 -14 -18 -5 0 -9 -4 -9
-9 0 -5 10 -7 22 -3 l22 5 -23 -31 c-39 -55 -45 -53 -54 18 -3 25 -4 37 -1 27
3 -9 10 -15 15 -11 5 3 6 10 3 16 -5 7 -1 9 9 5 12 -5 17 -1 17 13 0 14 -5 18
-17 13 -12 -5 -11 -1 5 15 12 12 27 22 33 22 5 0 7 5 4 10 -3 6 -2 10 3 10 5
0 12 -16 15 -36z m-86 -26 c-3 -7 -5 -2 -5 12 0 14 2 19 5 13 2 -7 2 -19 0
-25z m-1993 -256 c101 -60 230 -187 273 -267 38 -74 61 -159 64 -245 2 -54 0
-66 -14 -68 -10 -2 -17 3 -17 12 0 9 -6 16 -14 16 -23 0 -11 -35 13 -38 20 -3
22 -8 17 -35 -3 -17 -8 -32 -10 -35 -9 -8 -97 38 -91 48 4 6 1 17 -5 25 -10
12 -10 15 0 15 8 0 11 2 9 5 -3 2 -18 1 -35 -4 -28 -7 -28 -8 -6 -15 12 -4 22
-12 22 -17 0 -5 -14 -2 -31 6 -27 14 -29 18 -17 33 11 15 11 16 -4 4 -14 -11
-23 -8 -63 20 -25 18 -59 52 -75 76 -24 37 -27 47 -17 63 9 15 8 22 -6 36 -16
16 -17 16 -17 0 0 -10 5 -15 10 -12 6 3 10 2 10 -4 0 -57 -77 79 -118 209 -35
109 -70 248 -65 254 9 9 105 -33 187 -82z m1970 51 c-11 -47 -25 -73 -18 -35
4 25 2 32 -10 32 -17 0 -21 12 -9 23 3 4 15 7 25 7 15 0 17 -5 12 -27z m-2500
-73 c47 -113 86 -151 156 -152 3 -1 17 2 32 6 23 5 28 2 38 -27 18 -48 25
-277 11 -361 -19 -109 -16 -105 -62 -99 -49 7 -73 -12 -104 -83 -36 -78 -113
-134 -187 -134 -35 0 -86 59 -107 123 -26 77 -41 185 -30 212 7 17 8 17 8 3 1
-29 47 -22 69 10 36 49 54 124 60 232 5 114 -8 167 -46 191 -20 13 -20 13 3
58 30 59 79 111 103 111 15 0 28 -21 56 -90z m2955 55 c17 -20 40 -54 52 -77
l21 -41 -26 -21 c-45 -36 -58 -127 -35 -252 23 -131 59 -195 111 -198 20 -1
23 -5 20 -41 -8 -125 -66 -258 -117 -271 -67 -17 -175 40 -195 103 -7 21 -20
52 -30 68 -10 17 -15 37 -13 45 3 11 2 12 -5 2 -6 -9 -16 -10 -33 -3 -14 5
-36 7 -50 4 -24 -4 -26 -1 -40 54 -18 73 -19 331 -1 389 l12 41 52 -4 c88 -7
112 16 182 180 30 68 50 73 95 22z m-482 -77 c-3 -8 -6 -5 -6 6 -1 11 2 17 5
13 3 -3 4 -12 1 -19z m-2611 -154 c12 -84 -22 -276 -57 -313 -17 -18 -23 -19
-40 -8 -20 11 -21 18 -15 98 6 78 47 276 63 302 11 18 42 -31 49 -79z m3189
24 c42 -140 59 -340 30 -351 -19 -8 -62 44 -74 91 -20 75 -32 178 -26 221 16
105 45 121 70 39z m-2080 -605 c190 -60 241 -68 465 -68 193 0 212 2 319 29
127 32 198 59 315 119 45 23 85 44 90 46 4 2 -33 -35 -84 -83 -77 -72 -112
-96 -204 -141 -61 -31 -147 -65 -191 -76 -101 -26 -310 -36 -415 -20 -184 29
-379 123 -510 248 l-75 71 95 -47 c52 -25 140 -60 195 -78z m8 -301 c16 -9 48
-44 71 -77 45 -65 96 -105 132 -105 16 0 24 -7 28 -27 9 -46 24 -191 31 -304
7 -114 5 -120 -46 -132 -22 -6 -30 -1 -52 31 -80 114 -263 183 -370 139 l-37
-16 0 42 c0 54 26 217 47 287 44 155 114 213 196 162z m981 7 c31 -15 69 -70
90 -134 26 -75 63 -308 57 -359 -1 -5 -8 -2 -18 5 -11 10 -44 14 -102 14 -111
-1 -161 -24 -254 -117 -62 -63 -71 -68 -95 -60 l-27 9 0 139 c1 76 7 178 14
227 12 79 15 87 35 87 35 0 88 43 137 111 61 86 102 105 163 78z m-977 -560
c34 -17 75 -46 93 -67 17 -20 40 -48 51 -61 17 -20 26 -23 63 -19 40 5 42 4
38 -18 -5 -29 -52 -48 -168 -68 -95 -17 -291 -20 -362 -7 -67 13 -78 29 -64
92 21 88 83 152 170 175 61 15 103 9 179 -27z m1104 10 c41 -20 105 -88 119
-125 6 -14 10 -42 10 -63 0 -53 -26 -63 -182 -69 -202 -7 -401 29 -419 75 -5
13 -9 26 -9 27 0 2 20 1 44 -1 42 -5 44 -4 107 62 35 37 81 76 101 86 78 40
160 43 229 8z"/>
        <path d="M2670 4825 c-373 -59 -569 -220 -630 -516 -26 -123 -26 -260 -1 -315
69 -151 264 -221 711 -254 157 -11 349 -2 540 26 278 41 409 104 464 224 43
95 15 340 -55 487 -39 83 -143 193 -223 238 -84 47 -225 91 -349 109 -126 19
-340 19 -457 1z m-135 -397 c55 -25 81 -102 70 -205 -6 -55 -12 -71 -40 -101
-104 -114 -240 50 -184 219 27 79 92 116 154 87z m816 -4 c42 -21 69 -83 69
-161 0 -113 -40 -173 -117 -173 -78 0 -113 55 -113 175 0 87 20 134 68 160 35
19 56 18 93 -1z"/>
        <path d="M2180 3661 c8 -5 38 -14 67 -21 52 -14 65 -35 15 -25 -23 5 -24 4 -7
-4 58 -26 334 -66 530 -77 129 -7 388 8 545 32 104 15 273 54 267 61 -3 2 -24
-1 -48 -6 -71 -17 -89 -11 -29 9 73 24 63 24 -46 0 -195 -42 -328 -54 -604
-55 -146 0 -245 -2 -220 -5 25 -3 41 -8 35 -11 -12 -8 -190 13 -200 23 -4 3
22 4 57 2 39 -3 3 7 -97 24 -88 16 -184 37 -214 46 -60 18 -74 20 -51 7z"/>
        <path d="M2648 3403 c-13 -17 -2 -76 20 -102 14 -18 34 -22 117 -29 119 -10
308 0 329 17 19 16 38 74 34 103 l-3 23 -243 1 c-187 0 -245 -3 -254 -13z
m462 -8 c15 -9 6 -75 -12 -87 -7 -4 -24 -8 -38 -8 -15 0 -20 -3 -13 -8 6 -4
-60 -7 -148 -7 -87 0 -159 3 -159 6 0 4 -13 9 -29 12 -24 5 -32 14 -40 43 -6
21 -8 41 -5 46 3 4 78 6 167 3 89 -4 175 -2 192 3 33 10 65 9 85 -3z"/>
        <path d="M3675 3022 c-34 -31 -76 -69 -95 -84 -19 -14 -28 -26 -20 -24 9 1 25
10 36 21 44 41 65 55 76 49 7 -4 8 -3 4 4 -5 8 -2 10 9 6 8 -4 15 -11 14 -18
-3 -25 2 -37 12 -30 6 3 8 17 5 30 -5 17 -3 22 7 18 15 -5 21 32 6 41 -5 4 -5
14 1 26 6 10 9 19 8 19 -2 0 -30 -26 -63 -58z"/>
        <path d="M3733 2968 c-3 -7 -1 -8 5 -4 7 4 12 3 12 -2 0 -6 7 -12 15 -16 9 -3
15 0 15 8 0 17 -38 28 -47 14z"/>
        <path d="M3802 2958 c-7 -7 -12 -19 -12 -27 0 -11 5 -8 16 7 18 25 15 39 -4
20z"/>
        <path d="M3666 2867 c3 -10 9 -15 12 -12 3 3 0 11 -7 18 -10 9 -11 8 -5 -6z"/>
        <path d="M3730 2840 c0 -5 5 -10 10 -10 6 0 10 5 10 10 0 6 -4 10 -10 10 -5 0
-10 -4 -10 -10z"/>
        <path d="M2402 2809 c2 -7 15 -14 28 -16 27 -4 25 -1 -9 17 -19 9 -22 9 -19
-1z"/>
        <path d="M3305 2785 c-16 -7 -23 -14 -15 -14 8 0 26 6 40 14 32 18 14 18 -25
0z"/>
        <path d="M1910 3276 c0 -2 7 -7 16 -10 8 -3 12 -2 9 4 -6 10 -25 14 -25 6z"/>
        <path d="M1872 3250 c0 -14 2 -19 5 -12 2 6 2 18 0 25 -3 6 -5 1 -5 -13z"/>
        <path d="M2065 3059 c-5 -7 -4 -10 3 -5 6 3 13 2 17 -4 3 -5 -1 -10 -9 -10 -9
0 -16 -5 -16 -11 0 -7 10 -9 25 -7 13 3 26 0 28 -6 2 -6 7 -8 11 -5 3 3 -7 18
-23 33 -21 20 -31 24 -36 15z"/>
        <path d="M2260 2900 c0 -5 5 -10 10 -10 6 0 10 -10 10 -22 0 -19 2 -20 10 -8
13 21 13 23 -10 38 -12 7 -20 8 -20 2z"/>
        <path d="M2238 2873 c7 -3 16 -2 19 1 4 3 -2 6 -13 5 -11 0 -14 -3 -6 -6z"/>
        <path d="M2243 2729 c-1 -10 2 -21 8 -24 5 -4 6 2 2 11 -4 12 -3 15 5 10 7 -4
12 -1 12 7 0 21 -26 17 -27 -4z"/>
        <path d="M4231 2644 c0 -11 3 -14 6 -6 3 7 2 16 -1 19 -3 4 -6 -2 -5 -13z"/>
        <path d="M7170 5316 c-244 -39 -417 -116 -582 -259 -295 -259 -452 -705 -435
-1242 10 -332 85 -634 210 -850 125 -215 283 -370 481 -471 115 -58 119 -68
105 -225 -8 -88 -16 -127 -26 -136 -49 -39 -126 -469 -111 -623 7 -73 25 -86
138 -106 137 -25 493 -26 570 -2 30 10 98 19 151 20 128 5 149 18 149 92 0 79
-49 169 -116 216 l-50 35 -1 185 c-1 189 -13 298 -39 337 -8 12 -14 44 -14 71
0 49 0 49 43 61 393 118 669 430 790 896 61 232 71 320 71 600 1 277 -6 339
-59 545 -98 384 -330 656 -668 787 -180 69 -426 97 -607 69z m430 -75 c47 -10
127 -36 178 -56 100 -40 216 -110 208 -124 -18 -29 -258 -39 -351 -15 -26 6
-27 8 -10 16 14 5 9 6 -15 2 -21 -3 -30 -2 -22 4 16 11 -132 55 -263 78 -141
24 -301 15 -459 -25 -65 -17 -129 -37 -142 -46 -40 -26 -39 -17 2 16 44 35
172 98 252 124 29 9 97 25 150 36 125 24 345 19 472 -10z m-269 -126 c46 -8
140 -31 209 -51 242 -71 352 -80 441 -36 l42 21 65 -62 c63 -60 152 -170 152
-188 0 -5 -14 -9 -30 -9 -57 0 -185 -31 -246 -60 -74 -36 -155 -118 -189 -193
-44 -96 -55 -236 -30 -383 28 -161 87 -250 193 -295 95 -41 318 -79 463 -79
l49 0 0 -39 c0 -21 -3 -60 -7 -86 l-6 -48 -96 7 c-53 3 -127 8 -166 11 l-70 4
54 -10 c29 -5 103 -12 165 -17 126 -8 120 -1 91 -107 -7 -27 -18 -75 -25 -106
-12 -63 -20 -69 -83 -61 -45 5 -59 30 -56 96 l2 41 55 0 c29 0 56 3 59 8 2 4
-26 7 -64 5 l-68 -3 -3 -40 c-5 -84 14 -110 88 -120 27 -4 50 -10 50 -13 0
-19 -41 -136 -71 -202 -46 -103 -92 -183 -149 -260 -73 -99 -83 -106 -185
-124 -114 -20 -110 -21 -87 9 48 61 53 207 11 319 -25 67 -118 174 -140 161
-7 -5 -10 -4 -6 2 28 45 -422 171 -468 133 -12 -10 -24 -3 -65 41 -45 48 -51
58 -48 92 3 36 6 39 53 55 114 39 211 123 256 222 12 28 26 50 30 50 3 0 23
-7 44 -16 20 -8 39 -13 42 -11 2 3 -10 9 -26 15 -17 6 -31 14 -31 18 0 6 23 2
67 -12 10 -3 7 1 -7 9 -37 21 -74 32 -66 18 4 -6 0 -11 -9 -11 -12 0 -14 6 -8
28 14 52 8 195 -11 250 -86 253 -369 374 -609 258 -86 -41 -162 -117 -202
-203 -95 -199 -34 -439 142 -560 50 -34 53 -39 53 -78 0 -34 -6 -47 -39 -79
-21 -21 -46 -55 -56 -75 -15 -33 -21 -37 -57 -40 -124 -7 -284 -106 -337 -208
l-19 -38 -22 50 c-142 328 -180 818 -96 1226 49 233 172 478 310 614 57 56 69
63 171 97 225 75 414 95 596 63z m923 -720 c50 -54 62 -215 20 -271 -77 -104
-176 26 -150 199 13 86 82 124 130 72z m-1020 -88 c116 -53 205 -174 225 -305
16 -99 -12 -204 -74 -286 -38 -50 -131 -119 -150 -112 -9 3 -14 2 -11 -3 6 -9
-16 -21 -40 -21 -10 0 -13 11 -12 40 1 22 5 40 10 40 5 0 29 21 53 46 176 187
59 493 -189 494 -77 0 -132 -26 -190 -91 -52 -58 -76 -121 -76 -198 0 -93 35
-174 87 -202 18 -10 23 -21 23 -51 0 -50 -15 -49 -73 6 -58 56 -89 114 -73
138 8 13 7 21 -3 30 -8 7 -11 8 -8 3 3 -6 2 -17 -2 -24 -5 -8 -13 4 -21 33
-18 66 -9 209 17 268 40 87 148 182 246 214 65 22 192 12 261 -19z m-89 -156
c54 -24 119 -100 135 -156 25 -89 -12 -224 -76 -274 -31 -25 -39 -21 -47 18
-9 43 -66 83 -127 89 -58 5 -91 -11 -115 -58 -13 -25 -19 -29 -34 -20 -11 5
-29 31 -42 57 -30 62 -30 149 1 220 25 58 46 81 110 117 55 32 135 35 195 7z
m-70 -730 c125 -56 247 -315 248 -526 1 -157 -30 -252 -101 -317 -83 -75 -202
-68 -280 16 -45 49 -73 94 -50 80 7 -4 1 5 -15 21 -55 56 -92 240 -85 422 5
128 28 207 74 262 50 60 133 77 209 42z m375 -125 c63 -13 144 -35 180 -50 96
-40 97 -40 75 -22 -20 17 -20 17 2 6 13 -6 22 -14 21 -18 -2 -4 21 -31 49 -59
102 -105 136 -235 94 -372 -12 -39 -29 -75 -39 -80 -17 -9 -179 -15 -343 -12
-85 1 -87 1 -101 31 -10 21 -12 46 -8 87 13 113 -17 274 -76 408 -19 44 -38
86 -41 93 -8 19 56 15 187 -12z m-702 -32 c-18 -42 -15 -353 4 -422 15 -52 15
-52 -6 -46 -29 9 -31 11 -16 29 7 9 10 18 6 22 -3 3 -6 1 -6 -6 0 -7 -5 -9
-10 -6 -6 4 -18 1 -26 -6 -8 -6 -17 -9 -21 -5 -3 3 -1 6 5 6 7 0 12 4 12 8 0
5 -7 9 -15 9 -8 0 -15 -4 -15 -9 0 -9 -110 31 -160 59 -39 22 -83 80 -73 96 3
5 12 -1 19 -14 8 -15 13 -18 13 -9 1 25 -15 41 -32 34 -13 -5 -16 -2 -10 12 4
12 3 15 -5 10 -29 -18 2 63 41 110 39 47 153 111 230 130 37 9 67 21 67 27 0
6 2 8 5 5 3 -3 0 -18 -7 -34z m-131 -482 c21 -11 65 -28 98 -38 62 -18 95 -39
95 -58 0 -6 21 -42 46 -79 26 -37 44 -70 41 -73 -15 -16 -178 98 -271 189
-101 97 -102 106 -9 59z m1323 -153 c-52 -45 -244 -136 -335 -160 -44 -11
-126 -23 -181 -26 l-102 -6 -4 42 c-3 37 -2 40 17 34 55 -18 95 14 95 77 l0
37 208 7 c114 3 227 10 252 15 83 16 89 14 50 -20z m-343 -577 c3 -86 3 -182
-1 -214 -6 -48 -11 -57 -30 -62 -13 -3 -46 -21 -73 -39 -45 -30 -50 -31 -73
-19 l-25 14 1 195 c0 182 2 196 20 206 10 6 48 40 83 76 l63 66 14 -33 c9 -21
17 -90 21 -190z m-277 166 c16 -45 33 -353 23 -412 -8 -48 -9 -49 -54 -60 -52
-14 -90 -39 -171 -113 -57 -53 -58 -53 -123 -53 -68 0 -125 20 -125 43 0 75
54 382 76 436 l14 34 61 -6 c90 -8 115 3 194 88 39 41 75 75 82 75 6 0 16 -15
23 -32z m360 -538 c31 -22 70 -79 70 -103 0 -20 -30 -27 -122 -27 -67 0 -77 2
-83 19 -3 11 -17 36 -31 56 -29 43 -24 54 35 85 32 16 40 17 69 4 18 -7 46
-23 62 -34z m-312 5 c72 -31 129 -109 134 -185 l3 -44 -55 -9 c-68 -11 -402
-2 -490 13 -74 13 -90 23 -90 57 0 22 3 24 23 19 42 -13 125 -19 162 -12 25 5
57 27 108 73 62 57 132 102 160 103 4 0 24 -7 45 -15z m229 -201 c-3 -3 -12
-4 -19 -1 -8 3 -5 6 6 6 11 1 17 -2 13 -5z"/>
        <path d="M7620 3761 c0 -8 41 -23 47 -17 2 1 -8 8 -22 14 -14 6 -25 8 -25 3z"/>
        <path d="M7685 3760 c3 -5 14 -10 23 -10 9 0 24 -5 32 -11 11 -8 5 -9 -25 -5
l-40 5 35 -14 c43 -17 63 -18 55 -4 -5 7 6 8 32 4 23 -3 10 4 -37 20 -87 29
-83 28 -75 15z"/>
        <path d="M7800 3699 c38 -16 199 -56 254 -64 33 -4 46 -3 41 4 -4 7 6 11 27
12 20 0 0 7 -52 18 -136 29 -167 33 -150 22 23 -16 -3 -14 -73 4 -66 17 -84
18 -47 4z"/>
        <path d="M8195 3640 c39 -9 172 -14 164 -6 -2 2 -49 6 -104 9 -67 3 -87 2 -60
-3z"/>
        <path d="M6755 3833 c4 -10 8 -24 8 -31 0 -7 4 -9 8 -5 11 11 0 53 -13 53 -6
0 -7 -8 -3 -17z"/>
        <path d="M6750 3770 c0 -5 5 -10 11 -10 5 0 7 5 4 10 -3 6 -8 10 -11 10 -2 0
-4 -4 -4 -10z"/>
        <path d="M6793 3738 c1 -15 6 -23 11 -18 4 4 4 16 -2 26 -9 16 -10 14 -9 -8z"/>
        <path d="M7275 3710 c-3 -5 -1 -10 4 -10 6 0 11 5 11 10 0 6 -2 10 -4 10 -3 0
-8 -4 -11 -10z"/>
        <path d="M7186 3605 c-3 -9 0 -15 9 -15 9 0 12 6 9 15 -4 8 -7 15 -9 15 -2 0
-5 -7 -9 -15z"/>
        <path d="M6941 3254 c-35 -25 -51 -75 -51 -162 0 -130 39 -220 107 -248 28
-12 39 -12 61 -2 105 50 72 357 -45 413 -39 19 -43 19 -72 -1z m80 -24 c65
-35 103 -254 59 -340 -17 -33 -24 -39 -49 -37 -16 1 -28 4 -26 6 2 2 -9 14
-25 28 -54 45 -89 221 -60 300 19 49 58 66 101 43z"/>
        <path d="M6713 3125 c0 -33 2 -45 4 -27 2 18 2 45 0 60 -2 15 -4 0 -4 -33z"/>
        <path d="M6721 2904 c0 -11 3 -14 6 -6 3 7 2 16 -1 19 -3 4 -6 -2 -5 -13z"/>
        <path d="M11370 5296 c-266 -48 -449 -143 -622 -324 -88 -92 -119 -136 -187
-263 -64 -121 -122 -297 -153 -464 -20 -113 -23 -161 -23 -375 0 -274 13 -386
66 -575 77 -274 183 -461 357 -633 l94 -92 -41 -45 c-89 -97 -31 -188 192
-300 167 -84 265 -87 302 -9 9 19 18 34 20 34 3 0 27 -14 54 -30 76 -47 203
-90 266 -90 95 0 118 22 131 122 9 76 34 149 53 155 295 92 524 290 669 580
88 174 158 430 183 662 15 148 7 484 -16 611 -54 301 -156 538 -302 699 -126
140 -343 266 -543 317 -129 32 -376 42 -500 20z m418 -62 c138 -24 325 -99
408 -163 21 -16 30 -36 17 -37 -5 0 -35 -6 -68 -14 -80 -17 -173 -4 -371 54
-205 60 -276 70 -442 63 -140 -6 -294 -37 -363 -72 -53 -28 -44 -8 12 28 220
140 517 192 807 141z m-171 -137 c17 -1 29 -5 27 -8 -6 -10 50 -19 77 -13 16
4 20 3 11 -3 -17 -13 61 -36 91 -28 16 5 18 4 8 -3 -11 -8 -4 -13 28 -22 23
-6 51 -8 63 -4 13 4 18 2 14 -4 -18 -30 214 -27 277 3 37 17 37 17 72 -10 41
-30 151 -157 178 -204 l18 -31 -53 0 c-124 0 -287 -67 -355 -144 -105 -121
-137 -322 -87 -544 49 -217 179 -285 618 -318 l79 -6 -7 -66 c-12 -127 -18
-177 -25 -206 l-7 -28 -89 -2 -90 -1 -3 -51 c-4 -70 17 -95 86 -102 36 -3 52
-9 52 -19 0 -27 -72 -208 -121 -303 -27 -52 -77 -132 -113 -177 -70 -88 -74
-90 -214 -109 l-52 -7 22 49 c19 40 23 66 23 144 0 86 -3 101 -33 162 -39 80
-102 144 -183 188 -75 40 -264 88 -378 96 l-86 7 -40 45 c-35 38 -40 50 -37
83 4 33 8 39 35 45 56 12 148 64 191 109 24 24 59 74 79 112 69 132 69 270 1
410 -44 88 -104 147 -199 194 -67 33 -74 34 -185 34 -109 0 -119 -2 -183 -32
-194 -92 -295 -302 -246 -512 23 -102 98 -203 203 -274 39 -27 32 -82 -18
-137 -20 -22 -44 -56 -53 -75 -13 -27 -23 -35 -44 -35 -48 0 -154 -39 -215
-78 -59 -39 -144 -122 -144 -142 0 -5 -4 -10 -9 -10 -25 0 -117 301 -140 460
-84 573 52 1139 341 1416 47 46 67 57 172 93 178 62 241 71 441 65 94 -3 184
-6 202 -7z m863 -715 c37 -37 53 -99 48 -184 -5 -84 -28 -122 -79 -126 -62 -5
-99 60 -99 174 0 135 64 201 130 136z m-1049 -82 c101 -31 177 -101 227 -207
24 -51 27 -70 27 -158 0 -89 -3 -106 -28 -157 -15 -32 -49 -79 -74 -105 -25
-26 -40 -40 -33 -30 8 10 8 17 2 17 -6 0 -17 3 -25 6 -8 3 -26 -6 -40 -20 -22
-21 -27 -23 -37 -11 -7 8 -16 12 -21 9 -21 -13 -5 9 40 54 134 134 95 380 -73
458 -66 31 -153 32 -216 3 -62 -28 -135 -108 -156 -171 -22 -68 -15 -180 14
-237 27 -51 28 -61 3 -32 -16 18 -23 20 -39 12 -18 -9 -23 -5 -42 37 -25 50
-41 192 -23 192 6 0 8 20 5 48 -3 39 1 59 23 101 85 168 282 249 466 191z
m-44 -174 c36 -19 86 -72 109 -116 28 -54 26 -162 -6 -224 -23 -46 -71 -96
-91 -96 -5 0 -9 8 -9 19 0 25 -35 68 -70 86 -37 19 -119 19 -146 0 -12 -8 -27
-28 -34 -45 -7 -17 -17 -29 -23 -27 -6 2 -24 28 -41 58 -26 46 -31 64 -30 117
3 118 78 221 180 247 52 13 115 6 161 -19z m-289 -445 c8 -5 12 -22 10 -45
l-3 -38 -40 37 c-22 21 -32 32 -22 25 13 -10 17 -10 17 0 0 7 7 10 15 6 8 -3
15 -1 15 3 0 5 -6 12 -12 14 -7 3 -8 6 -3 6 6 0 16 -3 23 -8z m326 -52 c10 16
36 -4 36 -28 0 -14 2 -14 10 -1 7 11 10 11 10 2 0 -11 -56 -42 -77 -42 -5 0
-6 21 -4 48 2 32 6 41 11 28 5 -14 9 -16 14 -7z m1212 -216 c-27 -110 -24
-105 -64 -100 -84 11 -89 15 -96 78 l-5 46 86 2 85 2 -6 -28z m-1327 -13 c141
-72 273 -404 241 -608 -17 -108 -39 -162 -88 -214 -85 -91 -211 -92 -293 -1
-85 93 -127 202 -150 387 -24 200 30 393 123 439 45 23 120 21 167 -3z m441
-136 c120 -30 180 -60 251 -123 107 -95 143 -237 97 -381 l-24 -75 -49 -7
c-28 -3 -127 -7 -220 -7 -210 -1 -197 -13 -200 179 -3 154 -21 240 -79 366
-20 42 -36 79 -36 82 0 11 171 -11 260 -34z m-803 -54 c4 -11 8 -8 12 10 4 14
5 -47 3 -135 -3 -123 0 -176 12 -228 9 -38 16 -72 16 -77 0 -4 -22 1 -49 13
-28 11 -48 24 -46 28 3 4 -2 10 -11 13 -9 4 -13 2 -8 -5 10 -17 -30 -3 -116
39 -69 34 -77 42 -107 97 -29 54 -30 61 -18 86 22 41 66 90 76 83 5 -3 8 0 7
7 -4 19 89 77 157 98 55 17 60 17 63 2 2 -9 6 -23 9 -31z m55 -503 c9 -3 26
-24 37 -45 l20 -40 -44 -6 c-28 -5 -53 -3 -67 5 -25 13 -178 158 -178 169 0 4
48 -12 108 -35 59 -23 115 -45 124 -48z m1198 -65 c0 -13 -152 -109 -216 -138
-86 -38 -232 -73 -340 -80 l-94 -7 0 26 c0 14 -3 33 -6 42 -5 13 -2 15 20 9
58 -14 96 19 96 85 l0 28 188 7 c145 5 326 23 350 35 1 0 2 -3 2 -7z m-600
-84 c0 -15 -23 -20 -36 -7 -11 12 -9 14 11 14 14 0 25 -3 25 -7z m-485 -30 c6
-7 17 -32 24 -55 6 -23 23 -55 36 -71 l24 -29 -24 5 c-16 3 -25 0 -25 -8 0 -8
11 -11 31 -8 17 3 45 0 63 -6 74 -27 90 -54 64 -111 -9 -21 -18 -25 -53 -25
-86 0 -248 74 -327 151 -53 50 -58 73 -26 114 40 51 77 67 142 61 32 -2 64
-10 71 -18z m315 -218 c8 -5 11 -10 5 -10 -5 0 -1 -6 9 -12 27 -15 110 -11
229 12 55 11 102 19 103 17 6 -6 -17 -112 -25 -120 -14 -14 -103 -11 -149 4
-87 28 -240 118 -202 119 8 0 22 -5 30 -10z"/>
        <path d="M11833 3774 c39 -21 33 -24 -20 -8 -79 24 -59 8 31 -25 88 -31 166
-52 119 -32 -33 15 -28 23 10 17 17 -4 -11 9 -63 29 -105 38 -118 41 -77 19z
m64 -30 c-3 -3 -12 -4 -19 -1 -8 3 -5 6 6 6 11 1 17 -2 13 -5z"/>
        <path d="M12100 3691 c8 -6 36 -15 63 -22 26 -6 46 -13 44 -15 -4 -4 -89 10
-132 22 -15 4 -17 3 -5 -4 23 -15 184 -49 305 -66 171 -23 212 -27 195 -17 -8
5 -38 12 -65 14 -80 9 -82 9 -45 17 l35 7 -35 2 c-63 2 -210 30 -355 67 -16 4
-17 3 -5 -5z"/>
        <path d="M10955 3915 c7 -31 34 -80 40 -73 3 2 -7 26 -21 53 -20 37 -25 42
-19 20z"/>
        <path d="M10970 3770 c0 -5 5 -10 11 -10 5 0 7 5 4 10 -3 6 -8 10 -11 10 -2 0
-4 -4 -4 -10z"/>
        <path d="M11158 3229 c-28 -16 -51 -113 -44 -183 13 -134 71 -226 140 -226 75
0 106 71 92 208 -4 37 -16 87 -27 112 -21 47 -65 100 -83 100 -7 0 -8 -3 -1
-8 34 -24 83 -142 91 -214 8 -79 -8 -142 -41 -164 -53 -34 -99 6 -131 114 -21
70 -22 184 -2 214 8 13 15 27 16 32 0 5 6 13 14 17 19 12 -3 10 -24 -2z"/>
        <path d="M10934 2945 c2 -19 6 -38 10 -42 4 -4 6 12 5 35 -2 23 -6 42 -10 42
-4 0 -6 -16 -5 -35z"/>
        <path d="M10911 2434 c-12 -14 -12 -17 0 -25 8 -5 21 -8 29 -8 10 0 8 3 -5 9
-18 7 -19 8 -3 15 10 4 15 11 12 16 -7 13 -17 11 -33 -7z"/>
        <path d="M11108 2373 c7 -3 16 -2 19 1 4 3 -2 6 -13 5 -11 0 -14 -3 -6 -6z"/>
    </g>
</svg>
